#!OML:ASF E:/inclinewalkrobotboard/Project1/Captureday1/Session1/subject1.ASF
:FULLY-SPECIFIED
:DEGREES
188
root 0 0 0 1.05310425087653 -3.6792551620223803 1.8629775613620931
lowerback 11.924765554187937 0.8571752352801598 -0.05837681667856687
upperback -4.224360216234791 1.0869475389599705 -0.5565993902899913
thorax -11.298087127521313 0.4962743377457562 -0.8002912075029034
lowerneck -5.667369380044787 1.4461760813071791 4.5657281570578
upperneck 18.081072808664242 2.882452505204559 -8.319028723415805
head 6.588509191734423 1.0476479258574347 -3.2217355453550054
rclavicle -8.969967309468672E-16 -3.4402822630995453E-16
rhumerus 20.160282655311484 14.709992819566605 -48.13999745562818
rradius 72.54514553324077
rwrist 26.737016620050394
rhand -34.7563005649383 -57.39367932211785
rfingers 7.125020000000038
rthumb -7.917580032899362 -87.3084301796456
lclavicle 9.024639308812643E-16 -1.750415527301595E-15
lhumerus 20.851371269806457 -12.751759282481409 45.28165518409889
lradius 69.94615381021593
lwrist -22.27547393769815
lhand -44.774829780567835 -69.72476859514161
lfingers 7.125020000000029
lthumb -17.566221540078043 -40.526543127006406
rfemur -24.894431411679296 -2.2122639755956772 17.208279099805587
rtibia 54.048654738291994
rfoot -29.079573874692535 -16.7329671794342
rtoes -17.672097910012035
lfemur -26.677002639838985 2.4058632001321185 -18.294775516798634
ltibia 54.165039960058365
lfoot -31.061618230288666 -3.528338856258814
ltoes -19.632166006763647
189
root 0 0 0 1.0529804694028284 -3.679471588011195 1.862950648012864
lowerback 11.924766903011509 0.8571532639659554 -0.058325862000468326
upperback -4.224284359383228 1.0869283680729935 -0.5565536239331987
thorax -11.298000499094169 0.496264187978018 -0.8002650976551513
lowerneck -5.666922716450761 1.4461117265038035 4.56577393919938
upperneck 18.080797879182647 2.8823815880123282 -8.319209073634319
head 6.5883445257550735 1.047619255920321 -3.2218064856629973
rclavicle -8.9656621740681E-16 -3.433534386185671E-16
rhumerus 20.160285625472 14.710042290975904 -48.13999133277582
rradius 72.54516210446657
rwrist 26.736965992220107
rhand -34.756181661804554 -57.39346367746741
rfingers 7.125020000000038
rthumb -7.91746925305327 -87.30823104404962
lclavicle 9.023381954867336E-16 -1.7498617973279696E-15
lhumerus 20.85139039285644 -12.75188543747455 45.28155968901299
lradius 69.94628202352445
lwrist -22.275520886687318
lhand -44.77477558742578 -69.72429265951375
lfingers 7.125020000000029
lthumb -17.566171122657686 -40.52607440433384
rfemur -24.894400804336453 -2.2122878964504267 17.208361651359404
rtibia 54.04870991321051
rfoot -29.079482372846496 -16.732920848726756
rtoes -17.67200523741083
lfemur -26.677032973740744 2.4058534537031626 -18.294747313400666
ltibia 54.166000241246245
lfoot -31.06118000559364 -3.528757804086312
ltoes -19.63180904985655
190
root 0 0 0 1.0527663234904443 -3.679865630512888 1.8628979484906911
lowerback 11.924763791664091 0.8571146247621519 -0.05823798675747169
upperback -4.224148938021143 1.0868947253067422 -0.5564718062015311
thorax -11.297842828406145 0.49624646473491624 -0.8002164546416988
lowerneck -5.666162469993225 1.4460021970405577 4.565849741251641
upperneck 18.080328313556528 2.8822626364720483 -8.319515351773543
head 6.588063898310305 1.0475711821817182 -3.2219264733903294
rclavicle -8.957894518231203E-16 -3.4380911061707236E-16
rhumerus 20.160577528834374 14.71036415284637 -48.13984864170993
rradius 72.5453568548509
rwrist 26.736911479576037
rhand -34.75571397503756 -57.39288816521105
rfingers 7.125020000000038
rthumb -7.917022800753178 -87.30764546393864
lclavicle 9.03406425328328E-16 -1.750210271345293E-15
lhumerus 20.85156687699037 -12.75216400623377 45.28123349353821
lradius 69.94648874175556
lwrist -22.275583063821067
lhand -44.774627833661135 -69.723433816307
lfingers 7.125020000000029
lthumb -17.566030712240213 -40.5251983821755
rfemur -24.894416167256626 -2.212287377815822 17.208383789895503
rtibia 54.04878082026025
rfoot -29.079469522359794 -16.73289972638593
rtoes -17.67188643388716
lfemur -26.676920714777523 2.4059555955759033 -18.29474233028951
ltibia 54.16620172451196
lfoot -31.06094102830231 -3.5287552861003486
ltoes -19.631854497195683
191
root 0 0 0 1.0535861611995696 -3.67833934772192 1.863084780888881
lowerback 11.924849783567256 0.8572577121778748 -0.05850249510339317
upperback -4.224616893002242 1.0870248314478415 -0.5567557717056766
thorax -11.298420512995119 0.49631357790109426 -0.8004151017579793
lowerneck -5.668680648633634 1.4463063236919136 4.565528229347667
upperneck 18.081795642572754 2.8825454031009263 -8.318427868595835
head 6.58896316573658 1.047687817942045 -3.2215038370451627
rclavicle -9.073306394756942E-16 -3.3487553758044374E-16
rhumerus 20.160901467273113 14.709764249284643 -48.13957358503611
rradius 72.54550636308939
rwrist 26.737553046208426
rhand -34.75669307736398 -57.39444277652598
rfingers 7.125020000000038
rthumb -7.918017424660492 -87.30855028441488
lclavicle 8.949799881124306E-16 -1.7439180297301659E-15
lhumerus 20.851738018876652 -12.752158020815695 45.282001219871894
lradius 69.9464877719809
lwrist -22.27507081863193
lhand -44.77518060476337 -69.72534209333085
lfingers 7.1250200000000286
lthumb -17.566646440429416 -40.52721916136129
rfemur -24.89371535456112 -2.2117890061686394 17.20745679416699
rtibia 54.04905283626424
rfoot -29.07885953463975 -16.733939309957407
rtoes -17.67244546526966
lfemur -26.67871256357874 2.4062213449117085 -18.294793793834693
ltibia 54.16369267968886
lfoot -31.063053804525552 -3.526004495578859
ltoes -19.632210251037524
192
root 0 0 0 1.0531697152470643 -3.6791354547830735 1.8629920275544365
lowerback 11.924768291562717 0.8571866755798537 -0.058403789360590486
upperback -4.224401436311506 1.0869574582872956 -0.556623401960376
thorax -11.29813617955652 0.49627953992682916 -0.8003050623026755
lowerneck -5.667598105943271 1.4462080894385845 4.565701069574496
upperneck 18.081212735017203 2.88248645892219 -8.318931911397662
head 6.588593137130658 1.0476617266801065 -3.22169730221718
rclavicle -8.975352597292515E-16 -3.439910380903065E-16
rhumerus 20.160188765051068 14.709878786524385 -48.14003330875477
rradius 72.54508190707647
rwrist 26.73705141329708
rhand -34.75647380952685 -57.39392713138674
rfingers 7.125020000000038
rthumb -7.917746468854289 -87.3086795144872
lclavicle 9.018362275358845E-16 -1.7504290977706429E-15
lhumerus 20.85128285799827 -12.751603535881856 45.28179713067027
lradius 69.94604729336018
lwrist -22.2754595825775
lhand -44.77490037852159 -69.72521098314729
lfingers 7.125020000000029
lthumb -17.56629050119671 -40.526992997315176
rfemur -24.894427948298357 -2.212265016665161 17.20827757215138
rtibia 54.0486565484218
rfoot -29.079564020179273 -16.73297505688401
rtoes -17.672090024529922
lfemur -26.677153998472274 2.4058580089602293 -18.294784005261423
ltibia 54.16512922008562
lfoot -31.061625471928956 -3.5283690927076283
ltoes -19.631931121044545
193
root 0 0 0 1.0530330698424124 -3.6793753957876354 1.862962251127735
lowerback 11.924769162136423 0.8571624527124657 -0.05834749159016864
upperback -4.224317440724103 1.0869363400392336 -0.5565728963457544
thorax -11.298039897402838 0.4962683675441478 -0.8002762338823155
lowerneck -5.667106283877648 1.446137368314591 4.565752134870841
upperneck 18.080910079476055 2.882408754859683 -8.319131311203632
head 6.588411864754686 1.0476302994137296 -3.221775768194252
rclavicle -8.970067787261576E-16 -3.4332047569411175E-16
rhumerus 20.16021004498918 14.70995041577549 -48.14002039366623
rradius 72.54511091944347
rwrist 26.736993972801418
rhand -34.75632163106233 -57.39366390223857
rfingers 7.125020000000038
rthumb -7.9176037316423 -87.30843243758152
lclavicle 9.01824273132551E-16 -1.7498712125212219E-15
lhumerus 20.851318470284973 -12.751759100928382 45.281675042842856
lradius 69.9461954939414
lwrist -22.275509108891136
lhand -44.774832862217735 -69.72465127858362
lfingers 7.125020000000029
lthumb -17.566227053358347 -40.52643914993669
rfemur -24.894398251121057 -2.2122888349188408 17.20836040569834
rtibia 54.0487115541525
rfoot -29.07947466171404 -16.73292742342216
rtoes -17.671998812349496
lfemur -26.677156976940402 2.40584945768179 -18.294754256658937
ltibia 54.16607155542474
lfoot -31.061186722026356 -3.5287808573824706
ltoes -19.631618176897213
194
root 0 0 0 1.0528083206205836 -3.6797888204403812 1.8629072100907575
lowerback 11.924765610959987 0.8571219603588183 -0.05825524804413837
upperback -4.22417534414148 1.0869010904955836 -0.5564871902016164
thorax -11.297874285192833 0.4962498014933766 -0.8002253474324847
lowerneck -5.666308981986958 1.4460226516455292 4.56583232202231
upperneck 18.080417842514517 2.8822842991730795 -8.319453268753996
head 6.588117636974537 1.0475799884499224 -3.2219019496227608
rclavicle -8.961418046999237E-16 -3.4378360526565697E-16
rhumerus 20.160517042060324 14.710290649256972 -48.139871941622445
rradius 72.54531587926256
rwrist 26.736933829025084
rhand -34.75582598553334 -57.393048354556726
rfingers 7.125020000000038
rthumb -7.917130413250279 -87.30780658935541
lclavicle 9.029953108409623E-16 -1.7502185075948342E-15
lhumerus 20.851509308965014 -12.752062907019509 45.28132579723207
lradius 69.94641948167043
lwrist -22.275573628611834
lhand -44.77467364390746 -69.72372077002149
lfingers 7.125020000000029
lthumb -17.566075447525048 -40.52549024551125
rfemur -24.894414175491914 -2.2122881356019777 17.208382763808824
rtibia 54.04878215624369
rfoot -29.079463399975882 -16.732905025148675
rtoes -17.671881348168267
lfemur -26.677020190441965 2.4059523992715617 -18.294747941376105
ltibia 54.16625813546013
lfoot -31.060946846106503 -3.5287733228882963
ltoes -19.631701797693342
195
root 0 0 0 1.0526475805864846 -3.6800828558109373 1.8628706510486444
lowerback 11.924760169373736 0.8570937638343247 -0.058188679385603154
upperback -4.224073664657738 1.0868767101245072 -0.5564276729446422
thorax -11.297754070210388 0.49623699652605247 -0.8001910106628551
lowerneck -5.66574576225693 1.4459431488923056 4.5658970853883805
upperneck 18.080071064143155 2.8821994923238266 -8.31968983327533
head 6.587910164249003 1.0475455432075216 -3.2219952817701425
rclavicle -8.949962025353676E-16 -3.439545088317652E-16
rhumerus 20.160729760674478 14.710547400744652 -48.13978048232766
rradius 72.5454583173653
rwrist 26.736862466820916
rhand -34.75542322276564 -57.392482714699796
rfingers 7.125020000000038
rthumb -7.916743824626247 -87.30724004161763
lclavicle 9.043115320078571E-16 -1.7502653400815765E-15
lhumerus 20.851706147499293 -12.752406295250236 45.281011779284476
lradius 69.94665791547914
lwrist -22.275607569960172
lhand -44.77452153997677 -69.72275830734534
lfingers 7.125020000000029
lthumb -17.565927122006986 -40.52451347030164
rfemur -24.89443158419229 -2.212288423016905 17.20838802820837
rtibia 54.0487972118904
rfoot -29.07949431241129 -16.732892770585817
rtoes -17.67187343258957
lfemur -26.676759533942374 2.405986657143483 -18.29473336409815
ltibia 54.166147272932406
lfoot -31.060889781818965 -3.528703284719312
ltoes -19.632098353110358
